<svg xmlns="http://www.w3.org/2000/svg" viewBox="0 0 2113.47 261.82"><defs><style>.cls-1{fill:#525680;}.cls-2{fill:#52567f;}.cls-3{fill:#806796;}</style></defs><g id="Layer_2" data-name="Layer 2"><g id="Layer_1-2" data-name="Layer 1"><path class="cls-1" d="M898,158.81q-.39,9.51-4.36,27.34l-1,4.62-14.53,65.9H817.45L760.92,63.32h69.73l15.19,85.19q2,11.22,3,20.53t1.32,17.5h1.59q.26-11.49,4.09-30.24c.18-1.14.35-2.07.53-2.78l18.36-90.2h49l18.35,90.34c.09.52.27,1.41.53,2.64q3.84,18.88,4.1,30.24h1.58q.27-8.19,1.32-17.5t3-20.53l15.19-85.19h69.73L981.09,256.67H920.46l-14.52-65.9c-.27-1.15-.62-2.73-1.06-4.75q-4-17.7-4.36-27.21Z"/><path class="cls-1" d="M1019.12,256.67l68.95-193.35h77.39l67.62,193.35h-74.75l-6.21-24.3h-52.43l-6,24.3Zm92.19-70.26h28.92l-5.94-21.92q-4.35-16.65-5.94-25.63a135.31,135.31,0,0,1-2-16.9h-1.19a139.18,139.18,0,0,1-2,16.9q-1.59,9-6,25.63Z"/><path class="cls-1" d="M1257.78,256.67V126.58h-38.7V63.32h146.86v63.26h-38.7V256.67Z"/><path class="cls-1" d="M1525.88,140.05a70.42,70.42,0,0,0-19.41-13.6A50.05,50.05,0,0,0,1485.6,122q-17,0-27.41,10.5t-10.36,27.93q0,17,9.9,27.21t26.55,10.17a53.08,53.08,0,0,0,20.4-4.29q10.36-4.29,22.65-13.67l-2.24,72.77a127.68,127.68,0,0,1-22.72,6.93,115.77,115.77,0,0,1-49.92-.86,95,95,0,0,1-23.64-9q-25.62-14.79-38.77-37.37t-13.13-51.91a106.19,106.19,0,0,1,7.46-40.15A97.19,97.19,0,0,1,1439.44,66a112.61,112.61,0,0,1,41-7.33,109.73,109.73,0,0,1,45.43,9.77Z"/><path class="cls-1" d="M1556.52,256.67V63.32h69.6v64.32h42.4V63.32H1738V256.67h-69.47V188.52h-42.4v68.15Z"/><path class="cls-1" d="M1774.57,256.67V63.32h129.3v52.43h-61.15v18.63h55.47V183.9h-55.47v20.34h62.73v52.43Z"/><path class="cls-1" d="M1933.58,256.67V63.32H2021q38,0,58.12,16.77t20.07,48.34q0,20.59-10.1,33.94T2061.83,178l51.64,78.71h-77.92l-33.81-63.79v63.79Zm68.16-143.56v37.77h10.82q9.9,0,15.26-4.82t5.35-13.8q0-9.24-5.35-14.2t-15.26-5Z"/><path class="cls-2" d="M295.53,58.74l-22.07,72.93q-3.9,12.92-6.39,24t-3.83,21h-1.35A155.24,155.24,0,0,0,259,156.43q-2.22-10.77-6.8-26.38L231.35,58.74H0v64.45H67.51V255.73h70.78V123.19h41l50.61,132.54H295.8l74.95-197Z"/><line class="cls-2" x1="515.58" y1="11.51" x2="566.36" y2="62.28"/><path class="cls-2" d="M566.35,73.79a11.46,11.46,0,0,1-8.13-3.37L507.45,19.64A11.5,11.5,0,0,1,523.72,3.37l50.77,50.78a11.51,11.51,0,0,1-8.14,19.64Z"/><line class="cls-2" x1="618.28" y1="11.51" x2="567.5" y2="62.28"/><path class="cls-2" d="M567.5,73.79a11.51,11.51,0,0,1-8.13-19.64L610.14,3.37a11.5,11.5,0,0,1,16.27,16.27L575.64,70.42A11.48,11.48,0,0,1,567.5,73.79Z"/><path class="cls-2" d="M619,255.73H514.84a98.47,98.47,0,0,1,0-196.94H619a98.47,98.47,0,1,1,0,196.94ZM514.84,81.8a75.46,75.46,0,0,0,0,150.92H619A75.46,75.46,0,1,0,619,81.8Z"/><path class="cls-3" d="M566.93,126c-18.27,0-33.13,14-33.13,31.3s14.86,31.3,33.13,31.3,33.13-14,33.13-31.3S585.2,126,566.93,126Z"/><path class="cls-3" d="M566.93,98.7c-34.1,0-61.7,26.2-61.7,58.56s27.6,58.56,61.7,58.56,61.69-26.2,61.69-58.56S601,98.7,566.93,98.7Zm0,95.62c-21.44,0-38.89-16.63-38.89-37.06s17.45-37.06,38.89-37.06,38.88,16.63,38.88,37.06S588.37,194.32,566.93,194.32Z"/></g></g></svg>