<svg xmlns="http://www.w3.org/2000/svg" viewBox="0 0 1417.32 1203.69"><defs><style>.cls-1{fill:#52567f;}.cls-2{fill:#806796;}</style></defs><g id="Layer_2" data-name="Layer 2"><g id="Layer_1-2" data-name="Layer 1"><line class="cls-1" x1="466.97" y1="54.16" x2="705.97" y2="293.16"/><path class="cls-1" d="M706,347.31a54,54,0,0,1-38.29-15.87l-239-239a54.15,54.15,0,0,1,76.59-76.58l239,239A54.16,54.16,0,0,1,706,347.31Z"/><line class="cls-1" x1="950.35" y1="54.16" x2="711.35" y2="293.16"/><path class="cls-1" d="M711.36,347.31a54.16,54.16,0,0,1-38.29-92.45l239-239a54.15,54.15,0,0,1,76.58,76.58l-239,239A54,54,0,0,1,711.36,347.31Z"/><path class="cls-1" d="M953.83,1203.69H463.49C207.93,1203.69,0,995.77,0,740.2S207.93,276.7,463.49,276.7H953.83c255.56,0,463.49,207.92,463.49,463.5S1209.39,1203.69,953.83,1203.69ZM463.49,385C267.65,385,108.32,544.35,108.32,740.2s159.33,355.17,355.17,355.17H953.83C1149.68,1095.37,1309,936,1309,740.2S1149.68,385,953.83,385Z"/><path class="cls-2" d="M708.66,592.85c-86,0-155.94,66.1-155.94,147.35s70,147.33,155.94,147.33,156-66.09,156-147.33S794.65,592.85,708.66,592.85Z"/><path class="cls-2" d="M708.66,464.55c-160.47,0-290.38,123.31-290.38,275.64s129.91,275.65,290.38,275.65S999,892.52,999,740.19,869.13,464.55,708.66,464.55Zm0,450.06c-100.92,0-183-78.23-183-174.41s82.1-174.43,183-174.43,183,78.25,183,174.43S809.59,914.61,708.66,914.61Z"/></g></g></svg>